<svg width="512" height="512" viewBox="0 0 512 512" fill="none" xmlns="http://www.w3.org/2000/svg">
  <g id="doctor">
    <path id="hair" d="M256 16C166.4 16 112 64 112 144V176C112 176 144 208 256 208C368 208 400 176 400 176V144C400 64 345.6 16 256 16Z" fill="#231F20"/>
    <path id="face" d="M256 224C320 224 368 176 368 112C368 48 320 0 256 0C192 0 144 48 144 112C144 176 192 224 256 224Z" fill="#F9C9A9"/>
    <path id="body" d="M96 496V416C96 352 160 320 256 320C352 320 416 352 416 416V496C416 504.8 408.8 512 400 512H112C103.2 512 96 504.8 96 496Z" fill="#F2F7FC"/>
    <path id="stethoscope" d="M128 416C128 388.8 149.6 368 176 368C202.4 368 224 388.8 224 416C224 443.2 202.4 464 176 464C149.6 464 128 443.2 128 416ZM336 416C336 388.8 357.6 368 384 368C410.4 368 432 388.8 432 416C432 443.2 410.4 464 384 464C357.6 464 336 443.2 336 416Z" fill="#B84040"/>
    <path id="tie" d="M256 320L288 416H224L256 320Z" fill="#7D8B99"/>
    <path id="shirt" d="M176 320L208 416H304L336 320H176Z" fill="#D1D8E0"/>
  </g>
</svg> 